# xmcd
#
# Track frame offsets:
# 150
# 12874
# 25827
# 38131
# 51066
# 63569
# 75283
# 88557
# 98625
# 110493
# 120453
# 131973
# 144180
# 156527
# 170881
# 182751
# 194768
# 210140
# 221892
# 234567
# 247080
#
# Disc length: 3435 seconds
#
#
# Revision: 2
# Processed by: cddbd v1.5.2PL0 Copyright (c) Steve Scherf et al.
# Submitted via: FreeRIP 2.942 
#
DISCID=280d6915
DTITLE=Luiz Gonzaga - Despedida
DYEAR=2003
DGENRE=Folk
TTITLE0=Qui nem giló
TTITLE1=Xô pavão
TTITLE2=Bolo mimoso
TTITLE3=Tesouro e meio
TTITLE4=Rei Bantú
TTITLE5=Despedida
TTITLE6=A dança da moda
TTITLE7=Tambaú
TTITLE8=De Juazeiro a Pirapora
TTITLE9=Pra onde tu vai baião
TTITLE10=Adeus Rio de Janeiro
TTITLE11=Chorão
TTITLE12=Baião da Penha
TTITLE13=Toca pai
TTITLE14=Cata milho na festa
TTITLE15=Estrada do Canindé
TTITLE16=Maceió
TTITLE17=Marieta
TTITLE18=Xanduzinha
TTITLE19=Comício do mato
TTITLE20=Impertinente
EXTD=
EXTT0=
EXTT1=
EXTT2=
EXTT3=
EXTT4=
EXTT5=
EXTT6=
EXTT7=
EXTT8=
EXTT9=
EXTT10=
EXTT11=
EXTT12=
EXTT13=
EXTT14=
EXTT15=
EXTT16=
EXTT17=
EXTT18=
EXTT19=
EXTT20=
PLAYORDER=
